<svg xmlns="http://www.w3.org/2000/svg" viewBox="0 0 240 96"><defs><style>.cls-1{fill:#ff839f;}</style></defs><g id="Layer_2" data-name="Layer 2"><rect class="cls-1" width="240" height="96" rx="48"/><path d="M94.77,52.48v8.81h12.11V64H91.6V39.09h15.13v2.7h-12v8h10.39v2.69Z"/><path d="M124.84,64l-9.65-18.6,0,18.6h-3.2V39.09h3.21l9.66,18.56,0-18.56h3.2V64Z"/><path d="M133.15,39.09h5.76a14.83,14.83,0,0,1,2.74.3,11.57,11.57,0,0,1,2.39.8A9.66,9.66,0,0,1,146.73,42a8.89,8.89,0,0,1,1.87,2.62,11.91,11.91,0,0,1,1,2.77,14.89,14.89,0,0,1,.35,3.21v1.83a14.84,14.84,0,0,1-.31,3.11,11.75,11.75,0,0,1-.92,2.7,9.6,9.6,0,0,1-1.55,2.32,9.6,9.6,0,0,1-4.88,3,13.56,13.56,0,0,1-3.34.43h-5.76Zm3.21,22.31h2.55a9.6,9.6,0,0,0,2.49-.34,7,7,0,0,0,2-.93A6.51,6.51,0,0,0,145,58.62a7.44,7.44,0,0,0,1.07-2,10.3,10.3,0,0,0,.52-2,15.67,15.67,0,0,0,.18-2.2V50.6a14.47,14.47,0,0,0-.19-2.23,9.82,9.82,0,0,0-.54-2,8.16,8.16,0,0,0-1.24-2.17,6.07,6.07,0,0,0-1.91-1.56,6.94,6.94,0,0,0-1.79-.69,9.14,9.14,0,0,0-2.17-.27h-2.55Z"/></g></svg>