<svg xmlns="http://www.w3.org/2000/svg" viewBox="0 0 240 96"><defs><style>.cls-1{fill:#ff839f;}</style></defs><g id="Layer_2" data-name="Layer 2"><rect class="cls-1" width="240" height="96" rx="48"/><path d="M91.16,50.54V60.62H105v3.07H87.55V35.25h17.28v3.09H91.16v9.14H103v3.06Z"/><path d="M125.54,63.69l-11-21.25-.06,21.25h-3.65V35.25h3.67l11,21.21.06-21.21h3.65V63.69Z"/><path d="M135,35.25h6.58a16.5,16.5,0,0,1,3.14.34,13.16,13.16,0,0,1,2.72.91,11.2,11.2,0,0,1,3.08,2.1,10.47,10.47,0,0,1,2.14,3,14,14,0,0,1,1.1,3.16,17.88,17.88,0,0,1,.4,3.68v2.09a16.89,16.89,0,0,1-.36,3.55,13.38,13.38,0,0,1-1.05,3.09,11.28,11.28,0,0,1-4.18,4.68,11.19,11.19,0,0,1-3.17,1.35,15.41,15.41,0,0,1-3.82.49H135Zm3.67,25.49h2.91a10.42,10.42,0,0,0,2.84-.39,7.84,7.84,0,0,0,2.28-1.06,7.25,7.25,0,0,0,1.82-1.72,8.47,8.47,0,0,0,1.23-2.3,11.55,11.55,0,0,0,.58-2.23,18.45,18.45,0,0,0,.22-2.51V48.4a17.26,17.26,0,0,0-.23-2.55,12.08,12.08,0,0,0-.61-2.28,9.58,9.58,0,0,0-1.42-2.47,7,7,0,0,0-2.18-1.79,8.74,8.74,0,0,0-2-.79,11.16,11.16,0,0,0-2.48-.3H138.7Z"/></g></svg>