<svg xmlns="http://www.w3.org/2000/svg" viewBox="0 0 522.89 91.91"><defs><style>.cls-1{fill:#b09cff;}.cls-2{fill:#fff;}</style></defs><g id="Layer_2" data-name="Layer 2"><rect class="cls-1" width="522.89" height="91.91" rx="45.96"/><rect class="cls-2" x="96.86" y="17.65" width="329.17" height="56.62" rx="6.4"/><path d="M141.25,37.84a8.47,8.47,0,0,1,.59-1.76,9.51,9.51,0,0,1,.92-1.64A7.3,7.3,0,0,1,144,33l1.73,1.23a10,10,0,0,0-1.21,2.48,9.19,9.19,0,0,0-.4,2.73V42h-3.09V39.54A7.41,7.41,0,0,1,141.25,37.84Zm5.55,0a9.11,9.11,0,0,1,.59-1.76,10.23,10.23,0,0,1,.92-1.64,7.69,7.69,0,0,1,1.27-1.4l1.72,1.23a10.28,10.28,0,0,0-1.2,2.48,8.88,8.88,0,0,0-.4,2.73V42h-3.1V39.54A8,8,0,0,1,146.8,37.84Z"/><path d="M183.89,48.8v11H180.7V34.9H196v2.7H183.89v8.51h10.36V48.8Z"/><path d="M213.41,57.24a6.71,6.71,0,0,1-2.31,2.13,6.6,6.6,0,0,1-3.19.76,7.39,7.39,0,0,1-2.64-.45,5.17,5.17,0,0,1-2-1.41A6.51,6.51,0,0,1,202,55.83a11.91,11.91,0,0,1-.46-3.55v-11h3.17v11a11.46,11.46,0,0,0,.23,2.49,3.93,3.93,0,0,0,.72,1.58,2.6,2.6,0,0,0,1.17.83,4.89,4.89,0,0,0,1.6.24,6.53,6.53,0,0,0,1.9-.25,4.53,4.53,0,0,0,1.45-.69,4.07,4.07,0,0,0,.9-.86,5.45,5.45,0,0,0,.64-1.1V41.3h3.18V59.79H213.6Z"/><path d="M222.41,41.3h2.84l.22,2.73a9.42,9.42,0,0,1,.9-1.07,6.65,6.65,0,0,1,1-.84,6.85,6.85,0,0,1,1.79-.85,7.51,7.51,0,0,1,2-.32,8.12,8.12,0,0,1,2.64.41,5.08,5.08,0,0,1,2,1.29,5.72,5.72,0,0,1,1.29,2.21,10.06,10.06,0,0,1,.45,3.19V59.79h-3.16V48.11a7,7,0,0,0-.27-2.08,3.46,3.46,0,0,0-.81-1.39,3.21,3.21,0,0,0-1.32-.76,6.06,6.06,0,0,0-1.79-.24,5.29,5.29,0,0,0-1.62.24,5.79,5.79,0,0,0-1.39.68,6.08,6.08,0,0,0-1.7,2V59.79h-3.17Z"/><path d="M253,57.29a4.91,4.91,0,0,0,1.45-.77,3.86,3.86,0,0,0,1-1.13,2.88,2.88,0,0,0,.4-1.43h3a4.85,4.85,0,0,1-.64,2.35,6.6,6.6,0,0,1-1.66,2,8.36,8.36,0,0,1-2.39,1.35,7.91,7.91,0,0,1-2.82.51,8.45,8.45,0,0,1-3.68-.75,7.33,7.33,0,0,1-2.61-2,8.4,8.4,0,0,1-1.59-2.93,11.3,11.3,0,0,1-.53-3.51v-.72a11.33,11.33,0,0,1,.53-3.5,8.63,8.63,0,0,1,1.59-3,7.49,7.49,0,0,1,2.61-2A8.31,8.31,0,0,1,251.3,41a8.61,8.61,0,0,1,3,.52,7.87,7.87,0,0,1,2.39,1.41A6.57,6.57,0,0,1,258.25,45a6.18,6.18,0,0,1,.56,2.63h-3a3.88,3.88,0,0,0-.36-1.58,4.53,4.53,0,0,0-1-1.31,4.41,4.41,0,0,0-1.43-.88,4.79,4.79,0,0,0-5.87,1.79,6.66,6.66,0,0,0-.88,2.14,10.5,10.5,0,0,0-.26,2.37v.72a10.76,10.76,0,0,0,.26,2.4,6.52,6.52,0,0,0,.88,2.13,4.54,4.54,0,0,0,1.6,1.54,4.76,4.76,0,0,0,2.49.59A5.2,5.2,0,0,0,253,57.29Z"/><path d="M271.91,41.3h7v2.44h-7v10a5,5,0,0,0,.27,1.78,2.8,2.8,0,0,0,.75,1.11,2.74,2.74,0,0,0,1.1.59,4.8,4.8,0,0,0,1.33.18,9.83,9.83,0,0,0,1.06-.06c.36,0,.72-.09,1.07-.15l1-.18.74-.16.45,2.24a4.32,4.32,0,0,1-1,.42,8.53,8.53,0,0,1-1.23.29,11.62,11.62,0,0,1-1.41.21,14.8,14.8,0,0,1-1.48.07,7.48,7.48,0,0,1-2.3-.35,4.79,4.79,0,0,1-1.85-1.12,5.15,5.15,0,0,1-1.24-2,8.32,8.32,0,0,1-.45-2.91v-10h-4.86V41.3h4.86V36.82h3.18Z"/><path d="M295.37,41.3V57.05h6v2.74H285.92V57.05h6.29v-13h-6.29V41.3Zm-3.44-5.63a1.6,1.6,0,0,1,1-1,2.2,2.2,0,0,1,.8-.13,2.13,2.13,0,0,1,.78.13,1.67,1.67,0,0,1,1,.95,2.16,2.16,0,0,1,.13.78,1.71,1.71,0,0,1-1.89,1.8,1.82,1.82,0,0,1-1.43-.52,1.84,1.84,0,0,1-.47-1.28A2.19,2.19,0,0,1,291.93,35.67Z"/><path d="M306.12,46.65a8.88,8.88,0,0,1,1.68-3,7.55,7.55,0,0,1,2.63-2,8.2,8.2,0,0,1,3.5-.73,8.34,8.34,0,0,1,3.53.73,7.85,7.85,0,0,1,2.66,2,8.81,8.81,0,0,1,1.65,3,11.51,11.51,0,0,1,.59,3.72v.38a11.3,11.3,0,0,1-.59,3.7,8.81,8.81,0,0,1-1.65,3,7.88,7.88,0,0,1-2.65,2,8.94,8.94,0,0,1-7,0,7.47,7.47,0,0,1-2.64-2,8.88,8.88,0,0,1-1.68-3,11.3,11.3,0,0,1-.58-3.7v-.38A11.51,11.51,0,0,1,306.12,46.65Zm2.91,6.7a6.4,6.4,0,0,0,1,2.18,4.56,4.56,0,0,0,3.94,2,4.7,4.7,0,0,0,2.29-.54,5.1,5.1,0,0,0,1.65-1.49,7,7,0,0,0,1-2.18,10,10,0,0,0,.32-2.6v-.38a10,10,0,0,0-.33-2.59,7,7,0,0,0-1-2.18,5.21,5.21,0,0,0-1.65-1.49,4.61,4.61,0,0,0-2.3-.56,4.54,4.54,0,0,0-2.29.56A4.91,4.91,0,0,0,310,45.6a6.4,6.4,0,0,0-1,2.18,10,10,0,0,0-.33,2.59v.38A10,10,0,0,0,309,53.35Z"/><path d="M327.43,41.3h2.84l.22,2.73a7.72,7.72,0,0,1,.9-1.07,6.21,6.21,0,0,1,1-.84,6.7,6.7,0,0,1,1.79-.85,7.51,7.51,0,0,1,2-.32,8.12,8.12,0,0,1,2.64.41,5,5,0,0,1,2,1.29,5.86,5.86,0,0,1,1.3,2.21,10.06,10.06,0,0,1,.45,3.19V59.79H339.5V48.11a6.93,6.93,0,0,0-.28-2.08,3.44,3.44,0,0,0-.8-1.39,3.31,3.31,0,0,0-1.33-.76,6,6,0,0,0-1.78-.24,5.29,5.29,0,0,0-1.62.24,5.44,5.44,0,0,0-1.39.68,6,6,0,0,0-.95.87,6.43,6.43,0,0,0-.76,1.09V59.79h-3.16Z"/><path d="M376.11,37.36a9.17,9.17,0,0,1-.57,1.75,10.89,10.89,0,0,1-.94,1.66,8,8,0,0,1-1.26,1.4l-1.73-1.23a9.92,9.92,0,0,0,1.2-2.48,8.94,8.94,0,0,0,.41-2.74V33.16h3.09v2.51A7.85,7.85,0,0,1,376.11,37.36Zm5.68,0a10,10,0,0,1-.58,1.75,10.1,10.1,0,0,1-.94,1.66,7.3,7.3,0,0,1-1.26,1.4l-1.73-1.23a10,10,0,0,0,1.21-2.48,8.94,8.94,0,0,0,.4-2.74V33.16H382v2.51A7.82,7.82,0,0,1,381.79,37.36Z"/></g></svg>