<svg xmlns="http://www.w3.org/2000/svg" viewBox="0 0 522.89 91.91"><defs><style>.cls-1{fill:#86e2ff;}.cls-2{fill:#fff;}.cls-3{fill:#584f84;}</style></defs><g id="Layer_2" data-name="Layer 2"><polygon class="cls-1" points="454.89 91.92 0 91.92 68 0 522.89 0 454.89 91.92"/><path d="M104.33,59.46h-3.61V31h9.22a12.31,12.31,0,0,1,3.62.6,9.27,9.27,0,0,1,3,1.64,7.79,7.79,0,0,1,2,2.66,9.16,9.16,0,0,1,0,7.26,7.72,7.72,0,0,1-2,2.64,8.91,8.91,0,0,1-3,1.64,11.68,11.68,0,0,1-3.62.59h-5.61Zm5.61-14.38a7.06,7.06,0,0,0,2.3-.4,5.36,5.36,0,0,0,1.84-1.08,4.9,4.9,0,0,0,1.22-1.71,5.75,5.75,0,0,0,.44-2.3,5.92,5.92,0,0,0-.44-2.32,5.1,5.1,0,0,0-1.2-1.76,5.47,5.47,0,0,0-1.85-1.11,6.91,6.91,0,0,0-2.31-.41h-5.61V45.08Z"/><path d="M140.32,38.07a6.28,6.28,0,0,1,1.63.37L141.46,42c-.7-.16-1.37-.27-2-.35a18,18,0,0,0-2-.1,8.22,8.22,0,0,0-2.41.32,5.5,5.5,0,0,0-1.87.95,5.71,5.71,0,0,0-1.26,1.33,8.15,8.15,0,0,0-.89,1.77V59.46h-3.63V38.32h3.44l.15,2.84,0,.52a9.64,9.64,0,0,1,3.1-2.74,8.29,8.29,0,0,1,4.11-1A16.9,16.9,0,0,1,140.32,38.07Z"/><path d="M159.76,38.32v18h6.9v3.13H149V56.33h7.19V41.47H149V38.32Zm-3.93-6.42a1.68,1.68,0,0,1,.46-.71,1.8,1.8,0,0,1,.65-.4,3,3,0,0,1,1.81,0,1.94,1.94,0,0,1,.64.4,1.77,1.77,0,0,1,.47.69,2.57,2.57,0,0,1,.16.9,2.08,2.08,0,0,1-.55,1.46,2.13,2.13,0,0,1-1.62.59,2,2,0,0,1-2.17-2A2.5,2.5,0,0,1,155.83,31.9Z"/><path d="M172.4,38.32h3.24l.25,3.13a10.21,10.21,0,0,1,1-1.22,7.15,7.15,0,0,1,1.18-1,8,8,0,0,1,2-1,8.94,8.94,0,0,1,2.34-.36,9.23,9.23,0,0,1,3,.47,5.69,5.69,0,0,1,2.32,1.47,6.48,6.48,0,0,1,1.47,2.53A11.24,11.24,0,0,1,189.8,46V59.46h-3.61V46.12a7.85,7.85,0,0,0-.32-2.39,3.83,3.83,0,0,0-.91-1.58,3.72,3.72,0,0,0-1.52-.88,7,7,0,0,0-2-.27,5.83,5.83,0,0,0-1.85.28,6.69,6.69,0,0,0-1.59.77,6.78,6.78,0,0,0-1.08,1A7,7,0,0,0,176,44.3V59.46H172.4Z"/><path d="M205,38.32h8v2.8h-8V52.6a5.59,5.59,0,0,0,.31,2,3,3,0,0,0,.86,1.27,3,3,0,0,0,1.26.68,5.3,5.3,0,0,0,1.51.2,10,10,0,0,0,1.21-.07c.42,0,.83-.1,1.23-.16l1.11-.21.85-.18.5,2.55a4.41,4.41,0,0,1-1.09.48,10.41,10.41,0,0,1-1.41.34,12.68,12.68,0,0,1-1.61.24c-.56,0-1.13.08-1.69.08a8.56,8.56,0,0,1-2.62-.4,5.46,5.46,0,0,1-2.12-1.28,6,6,0,0,1-1.42-2.24,9.62,9.62,0,0,1-.52-3.33V41.12h-5.54v-2.8h5.54V33.21H205Z"/><rect class="cls-2" x="332.94" y="17.65" width="96.49" height="56.62" rx="3.46"/><rect class="cls-2" x="225.36" y="17.65" width="96.49" height="56.62" rx="3.46"/><polygon class="cls-3" points="412.95 57.33 422.43 40.91 403.47 40.91 412.95 57.33"/></g></svg>