<svg id="Space" xmlns="http://www.w3.org/2000/svg" xmlns:xlink="http://www.w3.org/1999/xlink" viewBox="0 0 573.63 468.05"><defs><style>.cls-1{fill:#fff;}.cls-2{fill:url(#linear-gradient);}</style><linearGradient id="linear-gradient" x1="64.33" y1="268.13" x2="504.62" y2="268.13" gradientUnits="userSpaceOnUse"><stop offset="0" stop-color="#e4ad6a"/><stop offset="0.99" stop-color="#e47781"/></linearGradient></defs><polygon class="cls-1" points="280.72 0 42.67 468.05 134.74 468.05 280.72 181.02 352.6 322.36 444.67 322.36 280.72 0"/><polygon class="cls-1" points="426.7 468.05 518.76 468.05 501.47 434.06 409.4 434.06 426.7 468.05"/><path class="cls-2" d="M470.71,281.3c11.7,17.45,15.79,33.76,10.2,47-16.62,39.37-112.29,36.6-213.7-6.19S97.07,212.7,113.69,173.32c7.56-17.9,31.49-27.06,64.83-27.74-57.24-6.07-100,4-111.29,30.85C47.68,222.76,129.1,301.37,249.08,352s233.1,54.12,252.65,7.79C510.72,338.5,498.33,310.38,470.71,281.3Z"/><path class="cls-1" d="M77.53,83h0c-33.64,0-38.77,27.27-38.77,60.91h0C38.76,110.23,33.64,83,0,83H0C33.64,83,38.76,55.69,38.76,22h0C38.76,55.69,43.89,83,77.53,83Z"/><path class="cls-1" d="M131.42,143.87h0c-16.56,0-19.08,13.43-19.08,30h0c0-16.55-2.52-30-19.08-30h0c16.56,0,19.08-13.42,19.08-30h0c0,16.56,2.52,30,19.08,30Z"/><path class="cls-1" d="M573.63,392.39h0c-16.55,0-19.07,13.42-19.07,30h0c0-16.56-2.52-30-19.08-30h0c16.56,0,19.08-13.42,19.08-30h0c0,16.56,2.52,30,19.07,30Z"/></svg>