<svg xmlns="http://www.w3.org/2000/svg" viewBox="0 0 522.89 91.91"><defs><style>.cls-1{fill:#86e2ff;}.cls-2{fill:#fff;}.cls-3{fill:#584f84;}</style></defs><g id="Layer_2" data-name="Layer 2"><polygon class="cls-1" points="494.89 91.92 0 91.92 28 0 522.89 0 494.89 91.92"/><path d="M103.41,59.46h-3.16V34.57h8.07a11,11,0,0,1,3.17.53,7.94,7.94,0,0,1,2.62,1.44,6.85,6.85,0,0,1,1.79,2.32,7.35,7.35,0,0,1,.66,3.18,7.24,7.24,0,0,1-.66,3.17,6.85,6.85,0,0,1-1.79,2.32A8.1,8.1,0,0,1,111.49,49a10.63,10.63,0,0,1-3.17.52h-4.91Zm4.91-12.58a6.25,6.25,0,0,0,2-.35,4.75,4.75,0,0,0,1.6-1,4.28,4.28,0,0,0,1.07-1.5,4.86,4.86,0,0,0,.38-2,5.12,5.12,0,0,0-.38-2A4.78,4.78,0,0,0,112,38.5a4.89,4.89,0,0,0-1.62-1,6,6,0,0,0-2-.36h-4.91v9.71Z"/><path d="M134.9,40.74a5.5,5.5,0,0,1,1.43.33l-.43,3.09a15.29,15.29,0,0,0-1.75-.3,16.06,16.06,0,0,0-1.74-.09,7.26,7.26,0,0,0-2.1.28,5,5,0,0,0-1.64.83,4.92,4.92,0,0,0-1.1,1.17,7.25,7.25,0,0,0-.78,1.55V59.46h-3.18V41h3l.14,2.48,0,.46a8.57,8.57,0,0,1,2.7-2.4,7.38,7.38,0,0,1,3.6-.88A14.5,14.5,0,0,1,134.9,40.74Z"/><path d="M151.91,41V56.72h6v2.74H142.46V56.72h6.29v-13h-6.29V41Zm-3.44-5.62a1.58,1.58,0,0,1,.4-.61,1.45,1.45,0,0,1,.58-.35,2.47,2.47,0,0,1,1.58,0,1.52,1.52,0,0,1,.56.35,1.5,1.5,0,0,1,.41.6,2.16,2.16,0,0,1,.14.78,1.8,1.8,0,0,1-.48,1.28,2.21,2.21,0,0,1-2.85,0,1.84,1.84,0,0,1-.47-1.28A2.19,2.19,0,0,1,148.47,35.34Z"/><path d="M163,41h2.84L166,43.7a7.72,7.72,0,0,1,.9-1.07,6.21,6.21,0,0,1,1-.84,6.7,6.7,0,0,1,1.79-.85,7.14,7.14,0,0,1,2-.32,8.12,8.12,0,0,1,2.64.41,5.06,5.06,0,0,1,2,1.28,6,6,0,0,1,1.3,2.22,10,10,0,0,1,.45,3.19V59.46H175V47.78a6.62,6.62,0,0,0-.28-2.08,3.44,3.44,0,0,0-.8-1.39,3.16,3.16,0,0,0-1.32-.76,6.11,6.11,0,0,0-1.79-.24,5.29,5.29,0,0,0-1.62.24,5.44,5.44,0,0,0-1.39.68,5.95,5.95,0,0,0-1.71,2V59.46H163Z"/><path d="M191.46,41h7v2.45h-7V53.46a4.92,4.92,0,0,0,.27,1.77,2.88,2.88,0,0,0,.76,1.12,2.61,2.61,0,0,0,1.1.59,4.73,4.73,0,0,0,1.32.17,7.71,7.71,0,0,0,1.06-.06c.37,0,.73-.08,1.08-.14l1-.18.75-.16.44,2.24a4.44,4.44,0,0,1-.95.42,12.39,12.39,0,0,1-1.23.29,12.25,12.25,0,0,1-1.41.21c-.5,0-1,.07-1.48.07a7.44,7.44,0,0,1-2.3-.35A4.91,4.91,0,0,1,190,58.33a5.36,5.36,0,0,1-1.24-2,8.32,8.32,0,0,1-.45-2.91V43.41h-4.85V41h4.85V36.49h3.18Z"/><rect class="cls-2" x="332.94" y="17.65" width="96.49" height="56.62" rx="3.46"/><rect class="cls-2" x="225.36" y="17.65" width="96.49" height="56.62" rx="3.46"/><polygon class="cls-3" points="412.95 57.33 422.43 40.91 403.47 40.91 412.95 57.33"/><path d="M237.62,37.85a9.29,9.29,0,0,1,.58-1.76,10,10,0,0,1,.93-1.64,7.3,7.3,0,0,1,1.26-1.4l1.73,1.23a10,10,0,0,0-1.21,2.48,9.26,9.26,0,0,0-.4,2.74V42h-3.09V39.55A7.41,7.41,0,0,1,237.62,37.85Zm5.55,0a9.34,9.34,0,0,1,.59-1.76,10.68,10.68,0,0,1,.92-1.64,7.69,7.69,0,0,1,1.27-1.4l1.72,1.23a10.28,10.28,0,0,0-1.2,2.48,8.94,8.94,0,0,0-.4,2.74V42H243V39.55A8,8,0,0,1,243.17,37.85Z"/><path d="M304.45,37.38a9.31,9.31,0,0,1-.57,1.74,10.1,10.1,0,0,1-.94,1.66,7.3,7.3,0,0,1-1.26,1.4L300,41a10,10,0,0,0,1.21-2.48,9.19,9.19,0,0,0,.4-2.73V33.17h3.09v2.51A8,8,0,0,1,304.45,37.38Zm5.68,0a8.67,8.67,0,0,1-.58,1.74,10.83,10.83,0,0,1-.93,1.66,7.69,7.69,0,0,1-1.27,1.4L305.62,41a10,10,0,0,0,1.21-2.48,8.88,8.88,0,0,0,.4-2.73V33.17h3.09v2.51A8,8,0,0,1,310.13,37.38Z"/></g></svg>