<svg id="Space" xmlns="http://www.w3.org/2000/svg" viewBox="0 0 899.85 826.58"><defs><style>.cls-1{fill:#fff;}.cls-2,.cls-4{fill:#371a45;}.cls-2,.cls-3{opacity:0.35;}.cls-5{opacity:0.7;}.cls-6{fill:#111a28;}</style></defs><path class="cls-1" d="M709.23,686.08c-121.58-95.52-262.4-124.45-262.4-124.45S309.29,589.88,188.74,682.76a509.34,509.34,0,0,0-70.84,65.7H775.75A507.46,507.46,0,0,0,709.23,686.08Z"/><path class="cls-2" d="M709.23,686.08c-121.58-95.52-262.4-124.45-262.4-124.45S309.29,589.88,188.74,682.76a366.38,366.38,0,0,0,86.05,65.7H626.41A366.37,366.37,0,0,0,709.23,686.08Z"/><path class="cls-1" d="M811.62,452.9h0a7.42,7.42,0,0,1-8-6.86l-16-213.6a7.44,7.44,0,0,1,6.86-8h0a78,78,0,0,1,83.61,72l5.44,72.84A78,78,0,0,1,811.62,452.9Z"/><g class="cls-3"><path class="cls-4" d="M881.05,335.14l2.56,34.16a78.05,78.05,0,0,1-72,83.62,7.46,7.46,0,0,1-8-6.88l-4.26-56.78a7.45,7.45,0,0,0,7.08,3.89l5.06-.39A78,78,0,0,0,881.05,335.14Z"/></g><path class="cls-1" d="M89.49,277.13h0a7.44,7.44,0,0,1,8,6.86l16,213.61a7.44,7.44,0,0,1-6.86,8h0a78,78,0,0,1-83.61-72l-5.44-72.84A78,78,0,0,1,89.49,277.13Z"/><g class="cls-3"><path class="cls-4" d="M109,438.34l4.42,59.26a7.45,7.45,0,0,1-6.88,8,78,78,0,0,1-83.59-72l-2.3-30.69A78,78,0,0,0,95,443.3l7.79-.58A7.54,7.54,0,0,0,109,438.34Z"/></g><circle class="cls-1" cx="450.6" cy="365.01" r="365.01"/><g class="cls-3"><path class="cls-4" d="M810.32,335.14c2.39,16.49,5.23,11.41,5.3,28.57C816.31,565.3,653.48,729.3,451.9,730S83.63,568,89.37,366.61c.16-5.79,3.19,8.63,3.45,2.91,25.24,177.6,171.29,293.34,355.74,292.68C644.35,661.49,801.94,528.72,810.32,335.14Z"/></g><path class="cls-4" d="M814.48,373.09c1.33,71.42-20.61,138.15-59.24,193.75-29,41.68-149.79,115.94-300.65,120.11C314.71,690.82,186,618.61,155.54,578c-40.67-54.12-65.09-120-66.43-191.4-3.52-189,157.38-270.37,357.69-274.11S811,184.1,814.48,373.09Z"/><g class="cls-5"><ellipse class="cls-1" cx="696.12" cy="349.62" rx="64.6" ry="46.81" transform="translate(239.7 980.89) rotate(-80.8)"/></g><g class="cls-5"><ellipse class="cls-1" cx="641.18" cy="478.62" rx="29.65" ry="25.44" transform="translate(-5.17 950.24) rotate(-72.86)"/></g><g class="cls-3"><path class="cls-6" d="M740.64,198.1c45.13,41.48,72.4,99.08,73.83,175,1.34,71.43-20.62,138.16-59.22,193.76-29,41.68-149.82,115.94-300.67,120.13-53.26,1.48-104.89-8.08-150.11-22.75C489.79,655.12,637,564,672.89,512.31c49-70.57,76.87-155.28,75.17-245.9A369.3,369.3,0,0,0,740.64,198.1Z"/></g><g class="cls-5"><path class="cls-1" d="M172.67,497.54S110.65,312.2,209.74,236s243.65-78.57,240.44-69.24c0,0-159.31,41.74-219.56,169.42C184.16,434.67,172.67,497.54,172.67,497.54Z"/></g><path class="cls-1" d="M1.28,720.59s-14.76,78.79,56.08,97.84,164.9,2.92,187.53-29.92c33.79-49,9.13-123.43-116.09-117.88C58.32,673.76,5.36,688.59,1.28,720.59Z"/><g class="cls-3"><path class="cls-4" d="M244.88,788.5c-22.64,32.85-116.68,49-187.5,29.94s-56.1-97.85-56.1-97.85a31.49,31.49,0,0,1,1.64-6.71c5.28,21.92,19.39,46,54.46,55.38,70.82,19,164.86,2.91,187.5-29.93a80.54,80.54,0,0,0,9-17.06C262.83,743.74,258.82,768.26,244.88,788.5Z"/></g><path class="cls-1" d="M898.57,720.59s14.76,78.79-56.09,97.84S677.58,821.35,655,788.51c-33.79-49-9.13-123.43,116.09-117.88C841.53,673.76,894.48,688.59,898.57,720.59Z"/><g class="cls-3"><path class="cls-4" d="M842.48,818.44c-70.83,19-164.91,2.91-187.54-29.94-13.94-20.24-17.91-44.76-9-66.26a80.51,80.51,0,0,0,9,17.12c22.63,32.84,116.71,49,187.54,29.9,35.06-9.42,49.17-33.46,54.45-55.38a31.49,31.49,0,0,1,1.64,6.71S913.33,799.39,842.48,818.44Z"/></g></svg>