<svg id="Space" xmlns="http://www.w3.org/2000/svg" viewBox="0 0 308.96 236.92"><defs><style>.cls-1{fill:#ffa000;}.cls-2{fill:#ffca28;}</style></defs><path class="cls-1" d="M244.07,27.57H129.69L103.65,0H30.38A30.38,30.38,0,0,0,0,30.38v179H.58A33.69,33.69,0,0,0,33.7,236.92H244.07a33.7,33.7,0,0,0,33.7-33.7V61.27A33.7,33.7,0,0,0,244.07,27.57Z"/><path class="cls-2" d="M262.73,236.92H31.66L61.18,94.31A22.21,22.21,0,0,1,82.94,76.59H286.72a22.23,22.23,0,0,1,21.77,26.73l-24,115.88A22.23,22.23,0,0,1,262.73,236.92Z"/></svg>