<svg id="Space" xmlns="http://www.w3.org/2000/svg" viewBox="0 0 167.89 246.32"><defs><style>.cls-1{fill:#17435c;}.cls-2{fill:#5d9d83;}.cls-3{fill:none;stroke:#fff;stroke-linecap:round;stroke-linejoin:round;stroke-width:7px;}</style></defs><path class="cls-1" d="M167.89,123.06a83.56,83.56,0,0,0-15.44-48.49L158.87,0h-59C91.64,25.36,49.24,46.56,47.56,47.39l0,0,0,0h0a84,84,0,0,0,.19,151.35l-.19.12s44,21.55,52.41,47.42h59l-6.43-74.75A83.54,83.54,0,0,0,167.89,123.06Z"/><circle class="cls-2" cx="110.36" cy="122.72" r="57.53"/><line class="cls-3" x1="88.29" y1="104.16" x2="132.43" y2="104.16"/><line class="cls-3" x1="88.29" y1="123.16" x2="132.43" y2="123.16"/><line class="cls-3" x1="88.29" y1="142.16" x2="132.43" y2="142.16"/></svg>