<?xml version="1.0" encoding="utf-8"?>
<!-- Generator: Adobe Illustrator 25.0.1, SVG Export Plug-In . SVG Version: 6.00 Build 0)  -->
<svg version="1.1" id="Space" xmlns="http://www.w3.org/2000/svg" xmlns:xlink="http://www.w3.org/1999/xlink" x="0px" y="0px"
	 viewBox="0 0 167.9 246.3" style="enable-background:new 0 0 167.9 246.3;" xml:space="preserve">
<style type="text/css">
	.st0{fill:#BACDD3;}
	.st1{fill:#5D9D83;}
	.st2{fill:none;stroke:#FFFFFF;stroke-width:7;stroke-linecap:round;stroke-linejoin:round;}
</style>
<path class="st0" d="M167.9,123.1c0-17.4-5.4-34.3-15.4-48.5L158.9,0h-59c-8.2,25.4-50.6,46.6-52.3,47.4l0,0l0,0l0,0
	C5.8,67.6-11.7,117.8,8.5,159.6c8.3,17.1,22.1,30.9,39.3,39.2l-0.2,0.1c0,0,44,21.6,52.4,47.4h59l-6.4-74.8
	C162.6,157.4,167.9,140.4,167.9,123.1z"/>
<circle class="st1" cx="110.4" cy="122.7" r="57.5"/>
<line class="st2" x1="88.3" y1="104.2" x2="132.4" y2="104.2"/>
<line class="st2" x1="88.3" y1="123.2" x2="132.4" y2="123.2"/>
<line class="st2" x1="88.3" y1="142.2" x2="132.4" y2="142.2"/>
</svg>
