<svg id="Space" xmlns="http://www.w3.org/2000/svg" viewBox="0 0 329.96 28.09"><defs><style>.cls-1,.cls-4{fill:#fdcb26;}.cls-2,.cls-3,.cls-5{fill:#fff;}.cls-3,.cls-4{opacity:0.6;}.cls-5{opacity:0.49;}.cls-6{fill:#f4a440;}.cls-7{fill:#ffea00;}.cls-8{fill:#f17b39;}.cls-9{fill:#f6cdff;}.cls-10{fill:#fdbf00;}.cls-11{fill:#ec6637;}</style></defs><path class="cls-1" d="M315.66,17.81l-5.24-.22a1.14,1.14,0,0,1-.83-1.87l3.36-4a1.12,1.12,0,0,0,.22-1L311.76,5.6a1.14,1.14,0,0,1,1.52-1.36l4.87,2a1.12,1.12,0,0,0,1.05-.11l4.37-2.9a1.14,1.14,0,0,1,1.77,1L325,9.43a1.1,1.1,0,0,0,.43,1l4.11,3.26a1.14,1.14,0,0,1-.43,2L324,16.94a1.13,1.13,0,0,0-.79.71l-1.83,4.92a1.14,1.14,0,0,1-2,.21l-2.79-4.44A1.13,1.13,0,0,0,315.66,17.81Z"/><circle class="cls-2" cx="61.59" cy="13.76" r="3.34"/><circle class="cls-2" cx="76.4" cy="23" r="1.89"/><circle class="cls-3" cx="98.21" cy="14.76" r="2.34"/><circle class="cls-3" cx="132.39" cy="20.57" r="4.68"/><circle class="cls-4" cx="164.65" cy="16.88" r="1.35"/><circle class="cls-1" cx="176.6" cy="25.21" r="1.47"/><circle class="cls-2" cx="211.35" cy="8.08" r="1.21"/><circle class="cls-5" cx="242.01" cy="20.57" r="2.81"/><circle class="cls-2" cx="278.4" cy="9.29" r="2.89"/><path class="cls-2" d="M14.4.92l-.05,0A13.47,13.47,0,0,0,5.8,13.79L17.63,9.15Z"/><path class="cls-2" d="M18.33,10.94l-.7-1.79L5.8,13.79a13.4,13.4,0,0,0,.19,2Z"/><polygon class="cls-6" points="5.8 13.79 5.8 13.79 0 23.21 20.06 15.34 18.33 10.94 17.63 9.15 5.8 13.79"/><path class="cls-7" d="M9.8,25.13c0,.13.08.26.13.39a4.06,4.06,0,0,0,7.83-1.58l-.06,0A20.18,20.18,0,0,1,9.8,25.13Z"/><path class="cls-7" d="M22.4,22.11,19,23.44a4.06,4.06,0,0,0,4.78,1.42L22.68,22Z"/><path class="cls-8" d="M19.79,15.44,0,23.21a33.09,33.09,0,0,0,9.8,1.92A20.18,20.18,0,0,0,17.7,24l.06,0,1.26-.5,3.38-1.33.28-.1-1.84-4.7-.78-2Z"/><path class="cls-9" d="M29.37,4.54A13.48,13.48,0,0,0,14.4.92l3.23,8.23Z"/><polygon class="cls-8" points="29.43 4.51 29.37 4.54 17.63 9.15 18.33 10.94 20.06 15.34 40.12 7.46 29.43 4.51"/><path class="cls-10" d="M26.34,20.57,23,21.9l-.27.11,1.12,2.85A4.05,4.05,0,0,0,26.34,20.57Z"/><path class="cls-10" d="M27.6,20.07a4.05,4.05,0,0,0,6.81-4.16c0-.13-.1-.26-.16-.38a20.44,20.44,0,0,1-6.59,4.52Z"/><path class="cls-11" d="M20.33,15.23l-.27.11.78,2L22.68,22,23,21.9l3.39-1.33,1.26-.5.06,0a20.44,20.44,0,0,0,6.59-4.52,32.91,32.91,0,0,0,5.87-8.07Z"/></svg>