<?xml version="1.0" encoding="utf-8"?>
<!-- Generator: Adobe Illustrator 25.0.1, SVG Export Plug-In . SVG Version: 6.00 Build 0)  -->
<svg version="1.1" id="Space" xmlns="http://www.w3.org/2000/svg" xmlns:xlink="http://www.w3.org/1999/xlink" x="0px" y="0px"
	 viewBox="0 0 573.6 468" style="enable-background:new 0 0 573.6 468;" xml:space="preserve">
<style type="text/css">
	.st0{fill:#FFFFFF;}
	.st1{fill:url(#SVGID_1_);}
</style>
<polygon class="st0" points="280.7,0 42.7,468.1 134.7,468.1 280.7,181 352.6,322.4 444.7,322.4 "/>
<polygon class="st0" points="426.7,468.1 518.8,468.1 501.5,434.1 409.4,434.1 "/>
<linearGradient id="SVGID_1_" gradientUnits="userSpaceOnUse" x1="64.3317" y1="201.1506" x2="504.625" y2="201.1506" gradientTransform="matrix(1 0 0 -1 0 469.2756)">
	<stop  offset="0" style="stop-color:#E4AD6A"/>
	<stop  offset="0.99" style="stop-color:#E47781"/>
</linearGradient>
<path class="st1" d="M470.7,281.3c11.7,17.5,15.8,33.8,10.2,47c-16.6,39.4-112.3,36.6-213.7-6.2S97.1,212.7,113.7,173.3
	c7.6-17.9,31.5-27.1,64.8-27.7c-57.2-6.1-100,4-111.3,30.9C47.7,222.8,129.1,301.4,249.1,352s233.1,54.1,252.6,7.8
	C510.7,338.5,498.3,310.4,470.7,281.3z"/>
<path class="st0" d="M77.5,83L77.5,83c-33.6,0-38.8,27.3-38.8,60.9l0,0C38.8,110.2,33.6,83,0,83l0,0c33.6,0,38.8-27.3,38.8-61l0,0
	C38.8,55.7,43.9,83,77.5,83z"/>
<path class="st0" d="M131.4,143.9L131.4,143.9c-16.6,0-19.1,13.4-19.1,30l0,0c0-16.6-2.5-30-19.1-30l0,0c16.6,0,19.1-13.4,19.1-30
	l0,0C112.3,130.4,114.9,143.9,131.4,143.9z"/>
<path class="st0" d="M573.6,392.4L573.6,392.4c-16.5,0-19.1,13.4-19.1,30l0,0c0-16.6-2.5-30-19.1-30l0,0c16.6,0,19.1-13.4,19.1-30
	l0,0C554.6,379,557.1,392.4,573.6,392.4z"/>
</svg>
