<svg id="Space" xmlns="http://www.w3.org/2000/svg" viewBox="0 0 391.56 156.44"><defs><style>.cls-1{fill:#da566e;}.cls-2{font-size:57px;font-family:Roboto-Medium, Roboto;font-weight:500;}.cls-2,.cls-5{fill:#fff;}.cls-3{fill:#ff4140;}.cls-4{fill:#cc2221;}.cls-6{fill:#dcdcdc;}.cls-7{fill:#00447d;}.cls-8{fill:#003766;}</style></defs><rect class="cls-1" x="83.17" y="35.82" width="308.39" height="102.82" rx="51.41"/><text class="cls-2" transform="translate(146.99 105.03)">Sign in</text><polygon class="cls-3" points="76.47 121.27 103.73 156.44 103.73 108.11 76.47 87.05 76.47 121.27"/><polygon class="cls-4" points="76.47 101.39 76.47 121.27 94.67 144.75 94.67 115.46 76.47 101.39"/><polygon class="cls-3" points="27.26 121.27 0 156.44 0 108.11 27.26 87.05 27.26 121.27"/><polygon class="cls-4" points="27.26 101.39 27.26 121.27 9.06 144.75 9.06 115.46 27.26 101.39"/><path class="cls-5" d="M15.38,105c.16.66.32,1.31.49,2,.29,1.16.61,2.3.94,3.42.22.77.45,1.54.69,2.29.39,1.24.8,2.45,1.23,3.64.21.6.43,1.19.65,1.77.45,1.16.91,2.3,1.39,3.42s1,2.2,1.49,3.26q1,2.14,2.16,4.14H51.87V24.28H30.18q-1.47,2.09-2.91,4.3c-1.52,2.35-3,4.82-4.41,7.38-1.12,2.06-2.2,4.18-3.21,6.35-.5,1.09-1,2.2-1.46,3.31A75.44,75.44,0,0,0,12,74.7a136.08,136.08,0,0,0,1.45,20C13.93,98.26,14.59,101.7,15.38,105Z"/><path class="cls-3" d="M51.87,24.28V0s-1.65,1.38-4.28,3.92-6.22,6.26-10.13,10.92c-.9,1.08-1.82,2.2-2.75,3.38-.31.39-.62.78-.93,1.19-.62.8-1.24,1.62-1.87,2.47s-1.15,1.58-1.73,2.4Z"/><path class="cls-6" d="M79.31,128.92a78.39,78.39,0,0,0,3.65-7.4c.48-1.12.94-2.26,1.39-3.42.22-.58.44-1.17.65-1.77.43-1.19.84-2.4,1.23-3.64.59-1.85,1.13-3.76,1.63-5.71.17-.66.33-1.31.49-2,.79-3.31,1.45-6.75,2-10.29a136.08,136.08,0,0,0,1.45-20,75.44,75.44,0,0,0-6.23-29.08c-.47-1.11-1-2.22-1.46-3.31C83.07,40.14,82,38,80.87,36c-1.41-2.56-2.89-5-4.41-7.38q-1.44-2.22-2.91-4.3H51.87V128.92Z"/><path class="cls-3" d="M20.56,121l.21.5c.48,1.11,1,2.2,1.49,3.26q1,2.14,2.16,4.14H51.87V121Z"/><path class="cls-4" d="M51.87,121v7.9H79.31a78.39,78.39,0,0,0,3.65-7.4l.21-.5Z"/><path class="cls-4" d="M51.87,24.28H73.55c-1.2-1.7-2.4-3.33-3.6-4.87-.31-.41-.62-.8-.93-1.19-.93-1.18-1.84-2.3-2.75-3.38-3.91-4.66-7.51-8.37-10.13-10.92S51.87,0,51.87,0Z"/><path class="cls-5" d="M40.72,86.37a2.41,2.41,0,0,1-2.58,2.22h0a2.41,2.41,0,0,1-2.57-2.22V83.18A2.41,2.41,0,0,1,38.14,81h0a2.41,2.41,0,0,1,2.58,2.22Z"/><path class="cls-5" d="M47.55,44.75a1.56,1.56,0,0,1-1.66,1.43h0a1.56,1.56,0,0,1-1.66-1.43V42.69a1.56,1.56,0,0,1,1.66-1.44h0a1.56,1.56,0,0,1,1.66,1.44Z"/><rect class="cls-5" x="24.42" y="128.92" width="27.44" height="7.7"/><rect class="cls-6" x="51.86" y="128.92" width="27.44" height="7.7"/><path class="cls-5" d="M51.86,41.25v46a23,23,0,1,0,0-46Z"/><path class="cls-6" d="M28.87,64.24a23,23,0,0,0,23,23v-46A23,23,0,0,0,28.87,64.24Z"/><path class="cls-7" d="M51.86,44.92A19.32,19.32,0,0,0,32.54,64.24H51.86Z"/><path class="cls-8" d="M32.54,64.24h0A19.32,19.32,0,0,0,51.86,83.57V64.24Z"/><path class="cls-8" d="M51.86,44.92V64.24H71.19A19.32,19.32,0,0,0,51.86,44.92Z"/><path class="cls-7" d="M51.86,64.24V83.57A19.32,19.32,0,0,0,71.19,64.24H51.86Z"/><path class="cls-5" d="M42.86,59.9a2.52,2.52,0,0,1-2.52,2.52h0a2.52,2.52,0,0,1-2.52-2.52V56.3a2.52,2.52,0,0,1,2.52-2.52h0a2.52,2.52,0,0,1,2.52,2.52Z"/></svg>